<?xml version="1.0" standalone="no"?><!DOCTYPE svg PUBLIC "-//W3C//DTD SVG 1.1//EN" "http://www.w3.org/Graphics/SVG/1.1/DTD/svg11.dtd"><svg class="icon" width="128px" height="120.03px" viewBox="0 0 1092 1024" version="1.1" xmlns="http://www.w3.org/2000/svg"><path d="M136.533333 68.266667a68.266667 68.266667 0 0 0-68.266666 68.266666v750.933334a68.266667 68.266667 0 0 0 68.266666 68.266666h819.2a68.266667 68.266667 0 0 0 68.266667-68.266666V136.533333a68.266667 68.266667 0 0 0-68.266667-68.266666H136.533333z m0-68.266667h819.2a136.533333 136.533333 0 0 1 136.533334 136.533333v750.933334a136.533333 136.533333 0 0 1-136.533334 136.533333H136.533333a136.533333 136.533333 0 0 1-136.533333-136.533333V136.533333a136.533333 136.533333 0 0 1 136.533333-136.533333z m585.728 423.253333V242.346667h65.536v243.712h-208.213333v235.52h176.810667v-180.906667h64.853333v275.797333h-64.853333v-32.768H335.872v32.768h-64.853333V540.672h64.853333v180.906667h176.810667v-235.52h-208.213334V242.346667h65.536v180.906666h142.677334V190.464h66.901333V423.253333h142.677333z" /></svg>